<svg width="30" height="30" viewBox="0 0 30 30" fill="none" xmlns="http://www.w3.org/2000/svg">
<path d="M14.985 0C6.705 0 0 6.72 0 15C0 23.28 6.705 30 14.985 30C23.28 30 30 23.28 30 15C30 6.72 23.28 0 14.985 0ZM15 27C8.37 27 3 21.63 3 15C3 8.37 8.37 3 15 3C21.63 3 27 8.37 27 15C27 21.63 21.63 27 15 27Z" fill="#F69134"/>
<path d="M15.0454 6.77622C15.0454 6.39784 15.0454 6.21022 15.1715 6.09355C15.3008 5.97688 15.4774 5.99107 15.8337 6.02103C17.4219 6.15368 18.9509 6.68546 20.2786 7.56699C21.6064 8.44852 22.6899 9.65123 23.4286 11.0635C24.1672 12.4757 24.5371 14.0517 24.5039 15.6451C24.4707 17.2385 24.0354 18.7977 23.2385 20.1779C22.4416 21.5581 21.3089 22.7146 19.9455 23.54C18.5821 24.3654 17.0323 24.833 15.44 24.8993C13.8476 24.9656 12.2643 24.6285 10.837 23.9193C9.40973 23.2102 8.18477 22.1519 7.27585 20.8427C7.07089 20.5494 6.96999 20.4028 7.00783 20.2341C7.04567 20.0654 7.20964 19.9724 7.53599 19.7832L14.6512 15.6746C14.8436 15.5642 14.9397 15.509 14.9918 15.4176C15.0454 15.3262 15.0454 15.2142 15.0454 14.9919V6.77622Z" fill="#F69134"/>
</svg>
