<svg width="22" height="21" viewBox="0 0 22 21" fill="none" xmlns="http://www.w3.org/2000/svg">
<path d="M19.191 15.8711H17.4747C17.3575 15.8711 17.2476 15.9224 17.1744 16.0127C17.0035 16.2203 16.8204 16.4204 16.6275 16.6109C15.8387 17.4005 14.9043 18.0298 13.876 18.4639C12.8107 18.9139 11.6657 19.1447 10.5093 19.1426C9.3399 19.1426 8.20709 18.9131 7.14263 18.4639C6.11438 18.0298 5.18 17.4005 4.39117 16.6109C3.60092 15.8239 2.9708 14.8912 2.5357 13.8643C2.08404 12.7998 1.85699 11.6695 1.85699 10.5C1.85699 9.3306 2.08648 8.20023 2.5357 7.13578C2.97027 6.10795 3.59527 5.18265 4.39117 4.3892C5.18707 3.59574 6.11236 2.97074 7.14263 2.53617C8.20709 2.08695 9.3399 1.85746 10.5093 1.85746C11.6788 1.85746 12.8116 2.08451 13.876 2.53617C14.9063 2.97074 15.8316 3.59574 16.6275 4.3892C16.8204 4.58207 17.001 4.78226 17.1744 4.98734C17.2476 5.07767 17.3599 5.12894 17.4747 5.12894H19.191C19.3448 5.12894 19.44 4.95805 19.3545 4.82865C17.482 1.91849 14.2056 -0.00777554 10.4825 0.00199008C4.63287 0.0166385 -0.0570741 4.76517 0.00151966 10.6075C0.0601134 16.357 4.74273 20.9981 10.5093 20.9981C14.2227 20.9981 17.4844 19.0743 19.3545 16.1714C19.4376 16.042 19.3448 15.8711 19.191 15.8711ZM21.3614 10.3462L17.897 7.61185C17.7676 7.50932 17.5796 7.60209 17.5796 7.76566V9.62113H9.91363C9.80621 9.62113 9.71832 9.70902 9.71832 9.81644V11.1836C9.71832 11.2911 9.80621 11.3789 9.91363 11.3789H17.5796V13.2344C17.5796 13.398 17.7701 13.4908 17.897 13.3882L21.3614 10.6538C21.3847 10.6356 21.4036 10.6122 21.4166 10.5856C21.4296 10.5589 21.4363 10.5297 21.4363 10.5C21.4363 10.4704 21.4296 10.4411 21.4166 10.4145C21.4036 10.3878 21.3847 10.3645 21.3614 10.3462Z" fill="white"/>
</svg>
