<svg width="26" height="26" viewBox="0 0 26 26" fill="none" xmlns="http://www.w3.org/2000/svg">
<path d="M14.25 15.5H16.75V11.75H20.5V9.25H16.75V5.5H14.25V9.25H10.5V11.75H14.25V15.5ZM8 20.5C7.3125 20.5 6.72417 20.2554 6.235 19.7663C5.74583 19.2771 5.50083 18.6883 5.5 18V3C5.5 2.3125 5.745 1.72417 6.235 1.235C6.725 0.745833 7.31333 0.500833 8 0.5H23C23.6875 0.5 24.2763 0.745 24.7663 1.235C25.2563 1.725 25.5008 2.31333 25.5 3V18C25.5 18.6875 25.2554 19.2763 24.7663 19.7663C24.2771 20.2563 23.6883 20.5008 23 20.5H8ZM3 25.5C2.3125 25.5 1.72417 25.2554 1.235 24.7663C0.745833 24.2771 0.500833 23.6883 0.5 23V5.5H3V23H20.5V25.5H3Z" fill="white"/>
</svg>
